#!OML:ASF F:\VICON\USERDATA\INSTALL\rory3\rory3.ASF
:FULLY-SPECIFIED
:DEGREES
343
root 4.11068 17.6299 43.647 -1.07856 2.12568 3.36622
lowerback 9.54168 -1.6436 -4.72893
upperback 0.625699 -2.63673 1.15314
thorax -4.43018 -1.2022 4.21123
lowerneck -15.7244 -3.28435 -3.56719
upperneck 16.9585 -4.34601 3.49967
head 7.99582 -1.95015 1.24851
rclavicle 6.01324e-015 -9.14409e-015
rhumerus -33.1409 -18.9072 -78.6835
rradius 27.9969
rwrist 2.62466
rhand -16.5183 22.6239
rfingers 7.12502
rthumb 9.70014 -7.13276
lclavicle 6.01324e-015 -9.14409e-015
lhumerus -20.7762 -5.95157 81.5146
lradius 28.2388
lwrist 7.70528
lhand -27.373 21.4195
lfingers 7.12502
lthumb -0.780372 51.3979
rfemur -29.8296 10.0422 13.4728
rtibia 15.3629
rfoot -11.798 -19.6082
rtoes -1.73923
lfemur 12.6147 -3.33559 -28.0895
ltibia 15.9721
lfoot -17.3478 -2.70811
ltoes -6.17127
344
root 4.09991 17.6103 43.8377 -1.06215 2.34134 3.01155
lowerback 9.63559 -1.70962 -4.32461
upperback 0.878663 -2.6751 1.26546
thorax -4.22632 -1.23884 4.10231
lowerneck -16.7501 -3.2889 -3.49674
upperneck 17.2132 -4.35391 3.54397
head 8.26225 -1.93027 1.23745
rclavicle 1.31198e-014 1.03368e-014
rhumerus -32.7827 -19.171 -78.7772
rradius 27.8
rwrist 2.18661
rhand -16.6378 22.3258
rfingers 7.12502
rthumb 9.58486 -7.43615
lclavicle 1.31198e-014 1.03368e-014
lhumerus -19.7815 -6.35151 81.5048
lradius 28.2842
lwrist 8.03035
lhand -27.4766 19.8053
lfingers 7.12502
lthumb -0.88042 49.7832
rfemur -29.6093 9.83808 13.9648
rtibia 14.7983
rfoot -12.3834 -19.3552
rtoes -4.18692
lfemur 13.0924 -3.34005 -27.552
ltibia 16.3202
lfoot -17.4521 -3.09162
ltoes -7.64852
345
root 4.08962 17.5883 44.0253 -0.975451 2.49686 2.8853
lowerback 9.60203 -1.7455 -4.15139
upperback 0.723414 -2.70407 1.29545
thorax -4.37374 -1.24894 4.04263
lowerneck -15.9274 -3.19703 -3.40581
upperneck 16.8683 -4.27111 3.5772
head 7.99697 -1.89428 1.25432
rclavicle 3.86636e-014 -1.90833e-014
rhumerus -33.5536 -19.8226 -78.1806
rradius 27.7377
rwrist 3.2675
rhand -16.6062 22.693
rfingers 7.12502
rthumb 9.61534 -7.06761
lclavicle 3.86636e-014 -1.90833e-014
lhumerus -19.7709 -6.85591 81.6061
lradius 28.5129
lwrist 8.39512
lhand -27.6905 19.5264
lfingers 7.12502
lthumb -1.08702 49.5034
rfemur -29.7608 8.57226 14.7229
rtibia 15.2219
rfoot -11.7739 -18.0437
rtoes -6.54207
lfemur 13.4982 -3.32225 -27.2817
ltibia 16.8074
lfoot -17.8222 -3.10053
ltoes -10.2946
346
root 4.07867 17.5618 44.2169 -0.935005 2.64715 3.23393
lowerback 9.69914 -1.73121 -4.47614
upperback 0.683262 -2.72774 1.23613
thorax -4.45576 -1.25163 4.17237
lowerneck -15.7034 -3.16062 -3.36716
upperneck 16.658 -4.21329 3.49446
head 7.88259 -1.87656 1.23039
rclavicle 5.41688e-015 -8.74653e-015
rhumerus -34.2511 -19.7776 -77.8937
rradius 28.3681
rwrist 3.63526
rhand -17.4146 21.809
rfingers 7.12502
rthumb 8.83529 -7.98601
lclavicle 5.41688e-015 -8.74653e-015
lhumerus -19.5329 -7.25736 81.8006
lradius 28.6705
lwrist 8.78946
lhand -28.7348 20.9532
lfingers 7.12502
lthumb -2.09557 50.9227
rfemur -30.0171 6.52763 15.3254
rtibia 16.3057
rfoot -10.3548 -15.7245
rtoes -7.50533
lfemur 13.9423 -3.56587 -27.5962
ltibia 17.3886
lfoot -18.0191 -3.21157
ltoes -10.3396
347
root 4.06511 17.5351 44.4086 -1.07016 2.55348 3.59334
lowerback 9.94736 -1.62971 -4.82072
upperback 0.685532 -2.64689 1.13909
thorax -4.58982 -1.20126 4.26633
lowerneck -15.3899 -3.16998 -3.30964
upperneck 16.3758 -4.23286 3.46008
head 7.7326 -1.89107 1.21171
rclavicle 6.43565e-014 -3.97569e-015
rhumerus -34.4039 -20.3362 -77.5307
rradius 27.6605
rwrist 3.62699
rhand -17.8513 23.1751
rfingers 7.12502
rthumb 8.4138 -6.63735
lclavicle 6.43565e-014 -3.97569e-015
lhumerus -19.3852 -7.50606 81.9329
lradius 28.8844
lwrist 8.74961
lhand -30.0703 22.2434
lfingers 7.12502
lthumb -3.38534 52.1963
rfemur -30.2435 4.80771 15.9439
rtibia 17.8412
rfoot -9.43217 -13.3485
rtoes -5.46383
lfemur 14.4336 -3.98406 -28.0607
ltibia 17.9658
lfoot -17.7502 -3.417
ltoes -7.54111
348
root 4.04518 17.5047 44.6098 -1.20308 2.19526 3.65919
lowerback 10.0542 -1.46559 -5.01129
upperback 0.742445 -2.45261 1.17177
thorax -4.60127 -1.10185 4.3867
lowerneck -15.5584 -3.21244 -3.27424
upperneck 16.461 -4.28843 3.41429
head 7.79057 -1.91711 1.18212
rclavicle 1.00386e-014 -1.66979e-014
rhumerus -34.516 -20.6267 -77.3028
rradius 27.0815
rwrist 3.45348
rhand -16.1684 26.9096
rfingers 7.12502
rthumb 10.0377 -2.83099
lclavicle 1.00386e-014 -1.66979e-014
lhumerus -19.2063 -7.72026 82.0911
lradius 29.1088
lwrist 8.70413
lhand -31.0587 22.4193
lfingers 7.12502
lthumb -4.33982 52.3548
rfemur -30.5672 4.10962 16.5969
rtibia 19.4646
rfoot -8.92478 -11.9814
rtoes -2.7611
lfemur 14.7912 -4.14112 -28.1972
ltibia 18.6624
lfoot -17.2567 -3.6892
ltoes -8.20331
349
root 4.02779 17.4806 44.8276 -1.32881 1.95096 3.26595
lowerback 10.0095 -1.37145 -4.68722
upperback 0.921189 -2.27641 1.35885
thorax -4.41276 -1.02919 4.37088
lowerneck -16.7511 -3.67984 -3.90038
upperneck 17.0868 -4.87565 3.98843
head 8.2624 -2.15847 1.38784
rclavicle 4.22417e-015 1.11319e-014
rhumerus -34.5757 -21.0475 -77.0108
rradius 27.0273
rwrist 3.99179
rhand -15.3772 26.8631
rfingers 7.12502
rthumb 10.801 -2.83919
lclavicle 4.22417e-015 1.11319e-014
lhumerus -18.7405 -7.90638 82.3028
lradius 29.1353
lwrist 8.49495
lhand -30.7168 21.2052
lfingers 7.12502
lthumb -4.00963 51.1472
rfemur -30.6486 3.73516 17.6094
rtibia 21.1448
rfoot -8.50443 -11.2736
rtoes -2.81432
lfemur 15.1272 -4.28871 -27.8138
ltibia 19.4936
lfoot -16.7025 -4.32404
ltoes -10.2906
350
root 4.01429 17.4668 45.0386 -1.42931 1.80634 2.86675
lowerback 9.76445 -1.39862 -4.31129
upperback 0.924956 -2.25853 1.40546
thorax -4.28645 -1.03085 4.19474
lowerneck -15.7672 -3.49776 -3.6585
upperneck 16.5908 -4.7026 4.00173
head 7.90999 -2.07704 1.38796
rclavicle -1.91827e-014 1.74931e-014
rhumerus -35.11 -21.227 -76.8945
rradius 26.9173
rwrist 4.46468
rhand -17.3438 22.3166
rfingers 7.12502
rthumb 8.90356 -7.47557
lclavicle -1.91827e-014 1.74931e-014
lhumerus -18.9753 -8.1121 82.2822
lradius 29.5262
lwrist 8.49064
lhand -29.0301 20.9165
lfingers 7.12502
lthumb -2.38081 50.883
rfemur -30.5968 3.73828 18.4089
rtibia 22.7282
rfoot -8.14555 -10.9055
rtoes -2.77419
lfemur 15.3224 -4.68944 -27.4678
ltibia 20.394
lfoot -15.6818 -5.31611
ltoes -7.30672
351
root 3.99759 17.4571 45.2475 -1.33794 1.69113 2.65328
lowerback 9.86581 -1.37992 -4.14169
upperback 0.977142 -2.21423 1.49648
thorax -4.29564 -1.0119 4.19153
lowerneck -17.0079 -3.64597 -3.59613
upperneck 17.3824 -4.87437 3.81356
head 8.39471 -2.15004 1.27565
rclavicle -2.21645e-014 -2.38542e-014
rhumerus -34.8922 -21.6391 -76.7305
rradius 26.0864
rwrist 4.44896
rhand -16.7352 26.3335
rfingers 7.12502
rthumb 9.49082 -3.43277
lclavicle -2.21645e-014 -2.38542e-014
lhumerus -18.7481 -8.08673 82.3738
lradius 29.8194
lwrist 8.40884
lhand -29.0397 21.1196
lfingers 7.12502
lthumb -2.39001 51.086
rfemur -30.8456 4.10959 18.7999
rtibia 24.2361
rfoot -7.33438 -10.5666
rtoes -0.559077
lfemur 15.6663 -4.66516 -27.2365
ltibia 21.3941
lfoot -15.4768 -4.77757
ltoes -12.8365
352
root 3.97858 17.4783 45.4688 -1.26905 1.77306 2.33597
lowerback 9.77659 -1.4616 -3.80947
upperback 0.627772 -2.28195 1.61455
thorax -4.61312 -1.03554 4.14201
lowerneck -15.9481 -3.58751 -3.70319
upperneck 17.1617 -4.79007 3.79514
head 8.13147 -2.13558 1.31273
rclavicle 2.5842e-015 -1.11319e-014
rhumerus -35.6673 -22.1608 -76.0426
rradius 25.2515
rwrist 4.65632
rhand -17.3998 25.1206
rfingers 7.12502
rthumb 8.84952 -4.67388
lclavicle 2.5842e-015 -1.11319e-014
lhumerus -19.6582 -8.26211 82.6699
lradius 30.1507
lwrist 7.95405
lhand -30.6696 20.5245
lfingers 7.12502
lthumb -3.96405 50.4674
rfemur -31.0707 4.7087 19.0518
rtibia 25.6114
rfoot -5.73828 -9.88257
rtoes 1.64118
lfemur 15.7093 -4.97077 -26.8825
ltibia 22.5204
lfoot -15.5867 -4.48246
ltoes -22.3788
353
root 3.95997 17.4879 45.6934 -1.29829 1.81154 2.10211
lowerback 9.6481 -1.56305 -3.66864
upperback 0.874895 -2.38949 1.7271
thorax -4.27272 -1.10437 4.18161
lowerneck -16.738 -3.44114 -3.41103
upperneck 17.201 -4.59104 3.56915
head 8.26363 -2.0343 1.20283
rclavicle 2.4202e-014 -1.66979e-014
rhumerus -35.3398 -21.45 -76.5294
rradius 25.4722
rwrist 4.03925
rhand -17.5838 23.5273
rfingers 7.12502
rthumb 8.67199 -6.27461
lclavicle 2.4202e-014 -1.66979e-014
lhumerus -19.4075 -8.1132 82.6782
lradius 30.4564
lwrist 7.48137
lhand -31.0868 20.1075
lfingers 7.12502
lthumb -4.36692 50.0425
rfemur -31.1957 5.54106 19.0939
rtibia 26.7728
rfoot -5.68205 -9.99026
rtoes -4.13386
lfemur 15.7946 -5.13586 -26.5663
ltibia 23.7639
lfoot -13.9868 -5.65691
ltoes -19.872
